<svg width="108" height="26" viewBox="0 0 108 26" fill="none" xmlns="http://www.w3.org/2000/svg">
<path d="M2.99414 25V3.45312H0.314453V0.9375H8.50391V3.45312H5.98828V25H2.99414ZM9.72344 25V0.9375H12.7176V11.1094H16.45V0.9375H19.4578V25H16.45V13.5977H12.7176V25H9.72344ZM22.2906 25V0.9375H29.6598V3.45312H25.2848V11.4375H29.4273V13.9395H25.2848V22.4844H29.7281V25H22.2906ZM37.0344 25V0.9375H42.0109C42.968 0.9375 43.7473 1.09701 44.3488 1.41602C44.9595 1.72591 45.4289 2.18164 45.757 2.7832C46.0852 3.37565 46.3085 4.0957 46.427 4.94336C46.5546 5.7819 46.6184 6.73438 46.6184 7.80078V8.19727C46.6184 9.80143 46.4908 11.1504 46.2355 12.2441C45.9803 13.3379 45.5201 14.1628 44.8547 14.7188C44.1984 15.2656 43.2596 15.5391 42.0383 15.5391H40.0285V25H37.0344ZM40.0285 13.0508H41.6555C42.2115 13.0508 42.6262 12.9004 42.8996 12.5996C43.1822 12.2897 43.3736 11.7793 43.4738 11.0684C43.5741 10.3574 43.6242 9.40039 43.6242 8.19727V7.73242C43.6242 6.22852 43.5057 5.11654 43.2687 4.39648C43.0409 3.66732 42.5214 3.30273 41.7102 3.30273H40.0285V13.0508ZM48.3438 25V0.9375H51.3379V22.498H55.8223V25H48.3438ZM55.6473 25L59.2566 0.9375H62.9617L66.8719 25H64.0555L63.3855 20.4746H59.1199L58.5184 25H55.6473ZM59.448 18.041H63.0301L61.1844 5.44922H61.1434L59.448 18.041ZM68.3922 25V0.9375H70.6754L76.1441 16.9062L75.8707 10.0293V0.9375H78.5367V25H76.3492L70.9898 8.8125L71.1539 14.9375V25H68.3922ZM81.3695 25V0.9375H88.7387V3.45312H84.3637V11.4375H88.5062V13.9395H84.3637V22.4844H88.807V25H81.3695ZM91.8176 25V3.45312H89.1379V0.9375H97.3273V3.45312H94.8117V25H91.8176ZM102.525 25.2734C101.55 25.2734 100.748 25.1048 100.119 24.7676C99.4993 24.4212 99.0163 23.929 98.6699 23.291C98.3327 22.653 98.0957 21.8965 97.959 21.0215C97.8314 20.1374 97.7676 19.1576 97.7676 18.082V15.7852H100.666V18.2188C100.666 19.8229 100.785 20.9714 101.021 21.6641C101.258 22.3568 101.764 22.7031 102.539 22.7031C103.068 22.7031 103.455 22.5801 103.701 22.334C103.956 22.0879 104.12 21.6914 104.193 21.1445C104.275 20.5885 104.316 19.8639 104.316 18.9707C104.316 17.9316 104.125 17.0293 103.742 16.2637C103.368 15.4889 102.817 14.737 102.088 14.0078L100.475 12.3809C100.01 11.9069 99.5632 11.3919 99.1348 10.8359C98.7064 10.2799 98.3555 9.65104 98.082 8.94922C97.8086 8.2474 97.6719 7.44987 97.6719 6.55664C97.6719 5.32617 97.804 4.27344 98.0684 3.39844C98.3327 2.51432 98.8066 1.83529 99.4902 1.36133C100.183 0.878255 101.154 0.636719 102.402 0.636719C103.378 0.636719 104.161 0.800781 104.754 1.12891C105.355 1.45703 105.807 1.93099 106.107 2.55078C106.417 3.16146 106.622 3.89062 106.723 4.73828C106.832 5.58594 106.887 6.5293 106.887 7.56836V9.00391H104.043V7.37695C104.043 6.44727 104.002 5.67708 103.92 5.06641C103.847 4.44661 103.692 3.98177 103.455 3.67188C103.227 3.36198 102.876 3.20703 102.402 3.20703C101.956 3.20703 101.596 3.31185 101.322 3.52148C101.049 3.73112 100.848 4.05924 100.721 4.50586C100.602 4.94336 100.543 5.50846 100.543 6.20117C100.543 6.81185 100.616 7.32227 100.762 7.73242C100.917 8.13346 101.145 8.51172 101.445 8.86719C101.746 9.21354 102.12 9.61914 102.566 10.084L104.275 11.916C105.16 12.8366 105.875 13.8574 106.422 14.9785C106.969 16.0905 107.242 17.3711 107.242 18.8203C107.242 20.1784 107.105 21.3405 106.832 22.3066C106.568 23.2637 106.094 23.9974 105.41 24.5078C104.736 25.0182 103.774 25.2734 102.525 25.2734Z" fill="white"/>
</svg>
